<?xml version="1.0" encoding="utf-8"?>
<!-- Generator: Adobe Illustrator 23.0.0, SVG Export Plug-In . SVG Version: 6.00 Build 0)  -->
<svg version="1.1" id="Camada_1" xmlns="http://www.w3.org/2000/svg" xmlns:xlink="http://www.w3.org/1999/xlink" x="0px" y="0px"
	 viewBox="0 0 643.7 198.6" style="enable-background:new 0 0 643.7 198.6;" xml:space="preserve">
<style type="text/css">
	.st0{fill:url(#SVGID_1_);}
	.st1{enable-background:new    ;}
	.st2{fill:#FAC600;}
	.st3{fill:#FFFFFF;}
	.st4{fill:#3F2A13;}
	.st5{fill:#EEA000;}
	.st6{opacity:0.5;fill:#3F2A13;enable-background:new    ;}
	.st7{opacity:0.7;}
	.st8{fill:url(#SVGID_2_);}
	.st9{fill:url(#SVGID_3_);}
	.st10{fill:url(#SVGID_4_);}
	.st11{fill:url(#SVGID_5_);}
</style>
<title>logo</title>
<g>
	<g>
		
			<linearGradient id="SVGID_1_" gradientUnits="userSpaceOnUse" x1="43.34" y1="33.6759" x2="229" y2="33.6759" gradientTransform="matrix(1 0 0 -1 -43.34 139.69)">
			<stop  offset="0" style="stop-color:#F9C600"/>
			<stop  offset="0.81" style="stop-color:#F4AC00"/>
			<stop  offset="0.99" style="stop-color:#F3A500"/>
		</linearGradient>
		<path class="st0" d="M134.1,35.9c30.7,30.7,51.6,162.7,51.6,162.7S53.7,177.7,23,147C-7.4,116-6.9,66.3,24.1,35.9
			C54.7,6,103.6,6,134.1,35.9z"/>
		<g class="st1">
			<path class="st2" d="M218,136.8c-10.8,0-19-0.7-23.1-1.5c-4.4-0.8-6.4-2.3-6.4-7.2V43.9c0-4.8,1.7-6.5,6-7.2
				c3.5-0.5,11.9-1.3,22.3-1.3c24.2,0,41.2,6.9,41.2,27.1v2.7c0,8.8-4.1,16.7-12.3,20.2c8.2,3.5,13,10.3,13,20.3v2.3
				C258.7,129.2,242.9,136.8,218,136.8z M240,63.6c0-9.4-6-12.8-23.1-12.8c-3.2,0-6.9,0.1-9.8,0.3v27.1h17
				c12.4,0,15.9-5.9,15.9-12.7V63.6z M240.5,105.9c0-7.4-3.9-14.2-16.4-14.2h-17v29.4c3.2,0,8.2,0.3,11,0.3
				c17.1,0,22.5-4.4,22.5-13.8V105.9z"/>
			<path class="st2" d="M289.8,50.3h-13c-1.5,0-2.8-1.2-2.8-2.7V35.9c0-1.5,1.3-2.7,2.8-2.7h13c1.5,0,2.7,1.2,2.7,2.7v11.8
				C292.5,49.1,291.3,50.3,289.8,50.3z M289.4,135.7h-12.3c-1.5,0-2.7-1.3-2.7-2.8V63c0-1.5,1.2-2.7,2.7-2.7h12.3
				c1.5,0,2.7,1.2,2.7,2.7v69.9C292.1,134.4,290.9,135.7,289.4,135.7z"/>
			<path class="st2" d="M339.5,136.8c-21,0-31.9-14.2-31.9-33.3V92.7c0-19.1,11-33.3,31.9-33.3c21,0,31.9,14.2,31.9,33.3v10.8
				C371.5,122.6,360.5,136.8,339.5,136.8z M353.8,92.7c0-11-4.9-18-14.3-18s-14.3,7.1-14.3,18v10.8c0,11,4.9,18,14.3,18
				s14.3-7.1,14.3-18V92.7z"/>
			<path class="st2" d="M417,136.8c-3.2,0-7.9-0.3-12.8-0.9v23.7c0,1.5-1.2,2.7-2.7,2.7h-12.3c-1.5,0-2.7-1.2-2.7-2.7v-93
				c0-2,0.5-2.8,3.6-3.6c8.3-2.1,18.3-3.5,26.9-3.5c21.5,0,31.9,12.7,31.9,33.5v10.3C449,124.1,438.5,136.8,417,136.8z M431.3,93
				c0-11-2.8-19.1-14.3-19.1c-4.8,0-10.3,0.4-12.8,0.9v46.6c3.7,0.5,9.6,0.9,12.8,0.9c11.5,0,14.3-8.2,14.3-19.1V93z"/>
			<path class="st2" d="M479.4,135.7H467c-1.5,0-2.7-1.3-2.7-2.8V36.7c0-1.5,1.2-2.7,2.7-2.7h12.4c1.5,0,2.5,1.2,2.5,2.7v96.2
				C482,134.4,480.9,135.7,479.4,135.7z"/>
			<path class="st2" d="M553.2,135.7h-11.4c-1.5,0-2.7-1.2-2.7-2.7v-2.1c-6.1,3.7-12.4,5.9-18.8,5.9c-11.1,0-23.1-4.3-23.1-22.3
				v-0.5c0-15.2,9.4-23.1,32.6-23.1h8.4v-5.9c0-8.7-3.9-10.8-11.8-10.8c-8.6,0-17.4,0.5-21.8,1.1c-0.3,0-0.5,0-0.7,0
				c-1.3,0-2.4-0.4-2.4-2.3v-8.6c0-1.5,0.8-2.4,2.5-2.8c5.3-1.1,13.1-2.1,22.3-2.1c19,0,29.4,8.4,29.4,25.5v48.1
				C555.9,134.5,554.7,135.7,553.2,135.7z M538.2,102.6h-8.4c-12.2,0-14.8,3.9-14.8,11.4v0.5c0,6.5,2.9,8.3,9.6,8.3
				c4.8,0,9.8-1.6,13.6-3.7V102.6z"/>
			<path class="st2" d="M632.3,135.7H620c-1.5,0-2.7-1.3-2.7-2.8V89.4c0-11.6-1.1-15-11.4-15c-4.5,0-9.5,1.9-15.1,4.8v53.7
				c0,1.5-1.2,2.8-2.7,2.8h-12.3c-1.5,0-2.7-1.3-2.7-2.8V63c0-1.5,1.2-2.7,2.7-2.7h11.6c1.5,0,2.7,1.2,2.7,2.7v2.8
				c7.8-4.9,12.8-6.4,21.6-6.4c19.2,0,23.1,13,23.1,29.9v43.6C635,134.4,633.8,135.7,632.3,135.7z"/>
		</g>
		<g class="st1">
			<path class="st3" d="M430.4,179.8h-3.9l-3.1-23.5l-3.1,23.5h-3.9l5.2-34.1h1.9c1.5,0,1.7,0.9,1.9,1.9L430.4,179.8z"/>
			<path class="st3" d="M453,179.8h-1.5h-0.2c-1.8,0-2-2.1-2.1-2.4l-4.9-31.8h2.7c0.2,0,0.8,0.2,1,1.3l3.3,21.4l3.5-22.7h3.5
				L453,179.8z"/>
			<path class="st3" d="M487,176.4c-0.4,0.9-1,2.2-1.1,2.5c-0.2,0.4-0.8,0.9-1.9,0.9h-7.8v-33.2c0-0.5,0.5-1,1.1-1h9.1l-1.2,2.5
				c-0.2,0.4-0.7,1-1.9,1h-2.8c-0.5,0-0.8,0.3-0.8,0.8v10.1h5.3c-0.4,0.9-1,2.3-1.1,2.6c-0.2,0.4-0.7,0.9-1.9,0.9h-1.5
				c-0.4,0-0.8,0.4-0.8,0.8v11.9H487z"/>
			<path class="st3" d="M515,179.8h-1.6c-1.9,0-2.2-1.5-2.3-2.2l-3.8-16.9v19.1h-3.5v-34.1h1.6c2,0,2.3,0.9,2.5,1.9l3.6,17.8v-19.7
				h3.5V179.8z"/>
			<path class="st3" d="M544.3,148.2c-0.2,0.4-0.7,0.9-1.9,0.9h-2.7c-0.5,0-0.8,0.4-0.9,0.8v29.9h-2.5c-0.8,0-1-0.5-1-0.7v-30h-4.9
				v-2.4c0-0.6,0.5-1.1,1.1-1.1h14L544.3,148.2z"/>
			<path class="st3" d="M571.1,175.8c0,2.3-1.9,4.1-4.2,4.1v0h-2.7c-2.4,0-4.3-1.8-4.3-4.2v-29.2c0-0.5,0.5-1,1-1h2.5v29.5
				c0,1,0.8,1.9,1.8,1.9h0.5c1,0,1.9-0.8,1.9-1.9v-29.5h3.5V175.8z"/>
			<path class="st3" d="M596.5,179.8v-12.5c0-1.7-0.9-2.2-1.8-2.2h-1.9v14.7h-3.5v-34.1h6.4c2.3,0,4.3,1.9,4.3,4.3v10.5
				c0,0,0.1,2.7-1.3,3c1.4,0.7,1.3,3.2,1.3,3.2v13.1H596.5z M594.7,161.8c0.9,0,1.8-0.4,1.8-2v-9.2c0-1.3-0.9-1.8-1.8-1.8h-1.9v12.9
				H594.7z"/>
			<path class="st3" d="M629.9,179.8h-3.9l-3.1-23.5l-3.1,23.5h-3.9l5.2-34.1h1.9c1.5,0,1.7,0.9,1.9,1.9L629.9,179.8z"/>
		</g>
		<circle class="st4" cx="79.1" cy="92" r="65.3"/>
		<ellipse class="st5" cx="79.1" cy="92" rx="43.1" ry="43.3"/>
		<path class="st6" d="M99.1,113.5l-3.6-5.2c3-3.2,5.1-7.3,5.8-11.7l22.1-3.4l-22-3.9c-0.7-4.4-2.6-8.5-5.6-11.8l3.8-5.1L94.4,76
			c-3.2-3-7.3-5.1-11.7-5.8L79.4,48l-3.9,22c-4.4,0.7-8.5,2.6-11.8,5.6l-5.1-3.7l3.6,5.2c-3,3.2-5.1,7.3-5.8,11.7l-22.1,3.4l22,3.9
			c0.7,4.4,2.6,8.5,5.6,11.8L58,113l5.2-3.6c3.2,3.1,7.3,5.1,11.7,5.9l3.4,22.1l3.9-22c4.4-0.7,8.5-2.6,11.8-5.6L99.1,113.5z
			 M56.9,92.4L73,92.6l-3.6,4.8l-12.4-2.2C57,94.3,56.9,93.4,56.9,92.4z M94.5,77.4l-9.3,9l0,0l-0.4-2.9L94,77
			C94.2,77.1,94.3,77.3,94.5,77.4L94.5,77.4z M100.7,92.9l-16.1-0.2l3.6-4.8l12.4,2.2C100.6,91,100.7,92,100.7,92.9z M85,99.1
			l2.9-0.4l6.5,9.3c-0.1,0.1-0.3,0.3-0.4,0.4L85,99.1z M78.9,86.9L74,83.3l2.2-12.4c0.9-0.1,1.9-0.2,2.8-0.2L78.9,86.9z M72.5,86.3
			l-2.9,0.4l-6.5-9.3l0.4-0.4L72.5,86.3z M72.4,98.9l0.4,2.9l-9.3,6.5c-0.1-0.1-0.3-0.3-0.4-0.4L72.4,98.9z M78.7,98.5l4.8,3.6
			l-2.2,12.4c-0.9,0.1-1.9,0.2-2.8,0.2L78.7,98.5z M96.5,110.8l-1.8-1.8c0.1-0.1,0.2-0.2,0.3-0.3L96.5,110.8z M94.9,107.5l-6.3-9
			l11.7-1.8C99.5,100.7,97.7,104.5,94.9,107.5L94.9,107.5z M117.7,93.2L101.6,93c0-0.9,0-1.8-0.1-2.7L117.7,93.2z M100.4,89.2
			l-11.6-2.1l6.5-8.8C97.9,81.4,99.7,85.1,100.4,89.2L100.4,89.2z M96.9,75l-1.8,1.8l-0.3-0.3L96.9,75z M93.6,76.6l-9,6.3l-1.8-11.7
			C86.9,71.9,90.6,73.8,93.6,76.6L93.6,76.6z M79.3,53.7l-0.2,16.1c-0.9,0-1.8,0-2.7,0.1L79.3,53.7z M75.3,71l-2.1,11.6l-8.8-6.5
			C67.5,73.5,71.2,71.7,75.3,71L75.3,71z M61.1,74.5l1.8,1.8l-0.3,0.3L61.1,74.5z M62.7,77.8l6.3,9l-11.7,1.8
			C58.1,84.6,59.9,80.9,62.7,77.8L62.7,77.8z M39.9,92.2L56,92.4c0,0.9,0,1.8,0.1,2.7L39.9,92.2z M57.2,96.2l11.6,2.1l-6.5,8.8
			C59.6,104,57.9,100.2,57.2,96.2L57.2,96.2z M60.7,110.4l1.8-1.8l0.3,0.3L60.7,110.4z M64,108.8l9-6.3l1.8,11.7
			C70.7,113.4,67,111.6,64,108.8z M78.3,131.6l0.2-16.1c0.9,0,1.8,0,2.7-0.1L78.3,131.6z M82.3,114.3l2.1-11.6l8.8,6.5
			C90.1,111.9,86.4,113.6,82.3,114.3L82.3,114.3z"/>
		<g class="st7">
			
				<image style="overflow:visible;enable-background:new    ;" width="101" height="229" xlink:href="9247A9F36722567C.png"  transform="matrix(0.72 0.2 -0.2 0.72 68.39 0)">
			</image>
		</g>
		
			<linearGradient id="SVGID_2_" gradientUnits="userSpaceOnUse" x1="150.4163" y1="154.9751" x2="151.6863" y2="102.3751" gradientTransform="matrix(0.9999 1.221700e-02 1.221700e-02 -0.9999 -66.7863 203.4032)">
			<stop  offset="0" style="stop-color:#E02108"/>
			<stop  offset="1" style="stop-color:#A91E15"/>
		</linearGradient>
		<polygon class="st8" points="71.8,90 99.5,37.8 85.8,95.3 		"/>
		
			<linearGradient id="SVGID_3_" gradientUnits="userSpaceOnUse" x1="154.6325" y1="159.2951" x2="153.8325" y2="118.8051" gradientTransform="matrix(0.9999 1.221700e-02 1.221700e-02 -0.9999 -66.7863 203.4032)">
			<stop  offset="0" style="stop-color:#FFFFFF"/>
			<stop  offset="1" style="stop-color:#A91E15"/>
		</linearGradient>
		<polygon class="st9" points="85.8,95.3 99.5,37.8 78.8,92.7 		"/>
		
			<linearGradient id="SVGID_4_" gradientUnits="userSpaceOnUse" x1="120.0021" y1="75.0324" x2="150.2821" y2="106.7524" gradientTransform="matrix(0.9999 1.221700e-02 1.221700e-02 -0.9999 -66.7863 203.4032)">
			<stop  offset="0" style="stop-color:#5082BE"/>
			<stop  offset="1" style="stop-color:#345AA1"/>
		</linearGradient>
		<polygon class="st10" points="85.8,95.3 58.1,147.5 71.8,90 		"/>
		
			<linearGradient id="SVGID_5_" gradientUnits="userSpaceOnUse" x1="126.2195" y1="67.0402" x2="141.1995" y2="97.8102" gradientTransform="matrix(0.9999 1.221700e-02 1.221700e-02 -0.9999 -66.7863 203.4032)">
			<stop  offset="0" style="stop-color:#FFFFFF"/>
			<stop  offset="1" style="stop-color:#345AA1"/>
		</linearGradient>
		<polygon class="st11" points="78.8,92.7 58.1,147.5 85.8,95.3 		"/>
		
			<image style="overflow:visible;enable-background:new    ;" width="22" height="22" xlink:href="9247A9F36722567D.png"  transform="matrix(1 0 0 1 67.66 81.69)">
		</image>
	</g>
</g>
</svg>
